<svg width="72" height="72" viewBox="0 0 72 72" fill="none" xmlns="http://www.w3.org/2000/svg">
    <g filter="url(#filter0_d_85_645)">
        <circle cx="32" cy="32" r="32" transform="matrix(1 0 0 -1 4 64)" fill="#EE2F2F"/>
        <g clip-path="url(#clip0_85_645)">
            <path d="M19.3047 21.8062C19.6301 21.3688 20.0585 20.7768 20.4016 20.3537C21.4292 19.1875 21.5625 19.0346 22.4976 18.1724C22.775 17.9448 23.1038 17.6711 23.4256 17.4133C21.0523 19.4222 20.7501 21.6462 22.9278 23.0204C22.9243 23.0204 22.9243 23.0204 22.9243 23.024C25.9696 24.8586 32.6434 24.4622 37.9092 22.112C43.0096 19.8364 44.8923 16.5813 42.375 14.6471C40.1652 14.2328 37.5305 14.1848 34.743 14.5582L34.4532 14.08L34.6932 13.2871C36.3323 13.1395 37.8896 13.1751 39.2336 13.4044C39.559 13.4595 39.9874 13.5537 40.3074 13.6213C40.9261 13.7724 41.2621 13.8631 41.6656 13.9928C42.0781 14.1155 42.4301 14.2382 43.0434 14.4657C43.6443 14.7022 43.9038 14.8088 44.3856 15.0488C44.9251 15.295 45.4494 15.5734 45.9554 15.8826C49.9661 18.4053 47.4718 23.008 40.3945 26.1617C33.3367 29.3048 24.343 29.7991 20.3127 27.3066C20.311 27.3031 20.3056 27.2995 20.295 27.296H20.3021C18.1012 25.9022 17.8701 23.8791 19.3047 21.8062ZM37.6674 39.4417L37.6105 36.608L35.5963 34.368C28.9421 35.8755 22.4016 35.552 18.7643 33.4097C18.7518 33.3955 18.7216 33.3813 18.7092 33.3671C16.6505 32.0995 16.1421 30.464 16.2967 28.6862C15.815 31.2871 15.7758 32.2257 15.8452 34.4515C15.9305 35.8453 16.7358 37.1306 18.3554 38.144L18.3678 38.1582C22.2452 40.5688 30.3234 41.0915 37.6674 39.4417ZM46.0674 42.6862C36.6754 46.4533 24.9207 46.6755 19.815 43.1893C20.3663 44.5368 21.1166 45.794 22.0407 46.9191C26.727 50.1191 37.5163 49.9146 46.1332 46.4568C51.1767 44.4355 54.359 41.7457 55.1945 39.2248L55.4292 38.4657C55.9856 36.5422 56.0905 34.9404 56.1794 33.5146C56.0781 36.6097 52.4319 40.1297 46.0674 42.6862ZM25.335 49.9413C25.6301 50.2222 26.5581 51.3617 31.2603 52.6204C32.5314 52.9013 35.7314 53.8026 41.6425 52.4924L41.6781 51.9537L41.2105 51.2213C35.7261 52.5191 29.6336 52.0853 25.335 49.9413ZM38.9065 27.5253L43.9003 31.3102C43.9003 31.3102 44.9687 32.08 43.9607 32.6204C42.9563 33.1555 40.3767 34.4657 40.3767 34.4657L37.8292 33.5146L36.551 34.0835L38.8052 36.0408L38.823 39.0862L40.1474 38.4977L41.0256 35.9253C41.0256 35.9253 43.7225 34.8871 44.7927 34.496C45.8683 34.1137 45.7243 35.4222 45.7243 35.4222L45.1945 41.664L46.9545 40.8817L49.8523 32.4604C49.8523 32.4604 51.3883 31.7137 52.4692 31.0577C53.5483 30.4017 53.9181 29.3137 53.9181 29.3137C53.9181 29.3137 52.8656 28.8604 51.6532 29.2248C50.4407 29.5857 48.8603 30.2293 48.8603 30.2293L40.6612 26.7466L38.9065 27.5253ZM28.3412 15.5502L31.7314 18.2506L32.6576 18.112L30.8123 15.6888C30.8123 15.6888 30.4105 15.1875 30.951 15.0684C31.495 14.9475 32.871 14.6666 32.871 14.6666L33.9056 15.4933L34.6025 15.3902L33.8132 14.1351L34.2292 12.7431L33.5554 12.8408L32.7572 13.9004C32.7572 13.9004 31.3563 14.032 30.8052 14.0782C30.2505 14.1208 30.4887 13.5253 30.4887 13.5253L31.5518 10.6666L30.6203 10.8035L28.167 14.3751C28.167 14.3751 27.3492 14.5244 26.7572 14.6933C26.1634 14.8604 25.8505 15.3191 25.8505 15.3191C25.8505 15.3191 26.2861 15.6711 26.8994 15.6586C27.5181 15.6462 28.3412 15.5502 28.3412 15.5502ZM45.0967 50.2488L42.903 49.1022L42.3981 49.2782L43.6976 50.4408C43.6976 50.4408 43.975 50.6773 43.6834 50.8035C43.3918 50.928 42.6487 51.2337 42.6487 51.2337L42.0354 50.96L41.671 51.0915L42.1812 51.6355L42.1314 52.4302L42.5118 52.2986L42.7963 51.6533C42.7963 51.6533 43.5678 51.424 43.8754 51.3422C44.1812 51.2586 44.1118 51.6177 44.1118 51.6177L43.8221 53.3333L44.3287 53.1573L45.3225 50.8888C45.3225 50.8888 45.7616 50.7164 46.0763 50.5582C46.391 50.4 46.5154 50.1084 46.5154 50.1084C46.5154 50.1084 46.2363 49.9555 45.8914 50.032C45.5447 50.1048 45.0967 50.2488 45.0967 50.2488Z" fill="white"/>
        </g>
    </g>
    <defs>
        <filter id="filter0_d_85_645" x="0" y="0" width="72" height="72" filterUnits="userSpaceOnUse" color-interpolation-filters="sRGB">
            <feFlood flood-opacity="0" result="BackgroundImageFix"/>
            <feColorMatrix in="SourceAlpha" type="matrix" values="0 0 0 0 0 0 0 0 0 0 0 0 0 0 0 0 0 0 127 0" result="hardAlpha"/>
            <feOffset dy="4"/>
            <feGaussianBlur stdDeviation="2"/>
            <feComposite in2="hardAlpha" operator="out"/>
            <feColorMatrix type="matrix" values="0 0 0 0 0 0 0 0 0 0 0 0 0 0 0 0 0 0 0.25 0"/>
            <feBlend mode="normal" in2="BackgroundImageFix" result="effect1_dropShadow_85_645"/>
            <feBlend mode="normal" in="SourceGraphic" in2="effect1_dropShadow_85_645" result="shape"/>
        </filter>
        <clipPath id="clip0_85_645">
            <rect width="42.6667" height="42.6667" fill="white" transform="translate(14.6665 10.6666)"/>
        </clipPath>
    </defs>
</svg>